<?xml version="1.0" encoding="UTF-8" standalone="no"?>
<!DOCTYPE svg PUBLIC "-//W3C//DTD SVG 1.1//EN"
 "http://www.w3.org/Graphics/SVG/1.1/DTD/svg11.dtd">
<!-- Generated by graphviz version 2.40.1 (20161225.0304)
 -->
<!-- Title: snakemake_dag Pages: 1 -->
<svg width="316pt" height="620pt"
 viewBox="0.00 0.00 316.08 620.00" xmlns="http://www.w3.org/2000/svg" xmlns:xlink="http://www.w3.org/1999/xlink">
<g id="graph0" class="graph" transform="scale(1 1) rotate(0) translate(4 616)">
<title>snakemake_dag</title>
<polygon fill="#ffffff" stroke="transparent" points="-4,4 -4,-616 312.0801,-616 312.0801,4 -4,4"/>
<!-- 0 -->
<g id="node1" class="node">
<title>0</title>
<path fill="none" stroke="#56c9d8" stroke-width="2" d="M124.5801,-36C124.5801,-36 94.5801,-36 94.5801,-36 88.5801,-36 82.5801,-30 82.5801,-24 82.5801,-24 82.5801,-12 82.5801,-12 82.5801,-6 88.5801,0 94.5801,0 94.5801,0 124.5801,0 124.5801,0 130.5801,0 136.5801,-6 136.5801,-12 136.5801,-12 136.5801,-24 136.5801,-24 136.5801,-30 130.5801,-36 124.5801,-36"/>
<text text-anchor="middle" x="109.5801" y="-15.5" font-family="sans" font-size="10.00" fill="#000000">finish</text>
</g>
<!-- 1 -->
<g id="node2" class="node">
<title>1</title>
<path fill="none" stroke="#56d892" stroke-width="2" d="M133.0801,-252C133.0801,-252 20.0801,-252 20.0801,-252 14.0801,-252 8.0801,-246 8.0801,-240 8.0801,-240 8.0801,-228 8.0801,-228 8.0801,-222 14.0801,-216 20.0801,-216 20.0801,-216 133.0801,-216 133.0801,-216 139.0801,-216 145.0801,-222 145.0801,-228 145.0801,-228 145.0801,-240 145.0801,-240 145.0801,-246 139.0801,-252 133.0801,-252"/>
<text text-anchor="middle" x="76.5801" y="-231.5" font-family="sans" font-size="10.00" fill="#000000">concatenate_alignments</text>
</g>
<!-- 1&#45;&gt;0 -->
<g id="edge2" class="edge">
<title>1&#45;&gt;0</title>
<path fill="none" stroke="#c0c0c0" stroke-width="2" d="M47.3617,-215.8172C35.4682,-206.6828 23.0228,-194.4662 16.5801,-180 -2.9481,-136.152 -7.3686,-113.5988 16.5801,-72 28.723,-50.9079 52.6131,-37.2946 73.1386,-29.0126"/>
<polygon fill="#c0c0c0" stroke="#c0c0c0" stroke-width="2" points="74.4447,-32.2609 82.5773,-25.4703 71.9851,-25.7072 74.4447,-32.2609"/>
</g>
<!-- 5 -->
<g id="node6" class="node">
<title>5</title>
<path fill="none" stroke="#56d873" stroke-width="2" d="M115.0801,-180C115.0801,-180 38.0801,-180 38.0801,-180 32.0801,-180 26.0801,-174 26.0801,-168 26.0801,-168 26.0801,-156 26.0801,-156 26.0801,-150 32.0801,-144 38.0801,-144 38.0801,-144 115.0801,-144 115.0801,-144 121.0801,-144 127.0801,-150 127.0801,-156 127.0801,-156 127.0801,-168 127.0801,-168 127.0801,-174 121.0801,-180 115.0801,-180"/>
<text text-anchor="middle" x="76.5801" y="-159.5" font-family="sans" font-size="10.00" fill="#000000">split_for_MIRZAG</text>
</g>
<!-- 1&#45;&gt;5 -->
<g id="edge8" class="edge">
<title>1&#45;&gt;5</title>
<path fill="none" stroke="#c0c0c0" stroke-width="2" d="M76.5801,-215.8314C76.5801,-208.131 76.5801,-198.9743 76.5801,-190.4166"/>
<polygon fill="#c0c0c0" stroke="#c0c0c0" stroke-width="2" points="80.0802,-190.4132 76.5801,-180.4133 73.0802,-190.4133 80.0802,-190.4132"/>
</g>
<!-- 2 -->
<g id="node3" class="node">
<title>2</title>
<path fill="none" stroke="#56d8a9" stroke-width="2" d="M296.0801,-180C296.0801,-180 157.0801,-180 157.0801,-180 151.0801,-180 145.0801,-174 145.0801,-168 145.0801,-168 145.0801,-156 145.0801,-156 145.0801,-150 151.0801,-144 157.0801,-144 157.0801,-144 296.0801,-144 296.0801,-144 302.0801,-144 308.0801,-150 308.0801,-156 308.0801,-156 308.0801,-168 308.0801,-168 308.0801,-174 302.0801,-180 296.0801,-180"/>
<text text-anchor="middle" x="226.5801" y="-159.5" font-family="sans" font-size="10.00" fill="#000000">concatenate_alignments_final</text>
</g>
<!-- 2&#45;&gt;0 -->
<g id="edge1" class="edge">
<title>2&#45;&gt;0</title>
<path fill="none" stroke="#c0c0c0" stroke-width="2" d="M225.7495,-143.6473C224.006,-124.0798 218.6862,-93.0696 202.5801,-72 188.2563,-53.2619 165.4226,-39.8675 145.9658,-31.1058"/>
<polygon fill="#c0c0c0" stroke="#c0c0c0" stroke-width="2" points="147.3093,-27.8739 136.7376,-27.1737 144.5653,-34.3136 147.3093,-27.8739"/>
</g>
<!-- 3 -->
<g id="node4" class="node">
<title>3</title>
<path fill="none" stroke="#59d856" stroke-width="2" d="M181.5801,-108C181.5801,-108 37.5801,-108 37.5801,-108 31.5801,-108 25.5801,-102 25.5801,-96 25.5801,-96 25.5801,-84 25.5801,-84 25.5801,-78 31.5801,-72 37.5801,-72 37.5801,-72 181.5801,-72 181.5801,-72 187.5801,-72 193.5801,-78 193.5801,-84 193.5801,-84 193.5801,-96 193.5801,-96 193.5801,-102 187.5801,-108 181.5801,-108"/>
<text text-anchor="middle" x="109.5801" y="-87.5" font-family="sans" font-size="10.00" fill="#000000">compress_MIRZAG_alignments</text>
</g>
<!-- 3&#45;&gt;0 -->
<g id="edge3" class="edge">
<title>3&#45;&gt;0</title>
<path fill="none" stroke="#c0c0c0" stroke-width="2" d="M109.5801,-71.8314C109.5801,-64.131 109.5801,-54.9743 109.5801,-46.4166"/>
<polygon fill="#c0c0c0" stroke="#c0c0c0" stroke-width="2" points="113.0802,-46.4132 109.5801,-36.4133 106.0802,-46.4133 113.0802,-46.4132"/>
</g>
<!-- 4 -->
<g id="node5" class="node">
<title>4</title>
<path fill="none" stroke="#d88d56" stroke-width="2" d="M139.5801,-324C139.5801,-324 109.5801,-324 109.5801,-324 103.5801,-324 97.5801,-318 97.5801,-312 97.5801,-312 97.5801,-300 97.5801,-300 97.5801,-294 103.5801,-288 109.5801,-288 109.5801,-288 139.5801,-288 139.5801,-288 145.5801,-288 151.5801,-294 151.5801,-300 151.5801,-300 151.5801,-312 151.5801,-312 151.5801,-318 145.5801,-324 139.5801,-324"/>
<text text-anchor="middle" x="124.5801" y="-303.5" font-family="sans" font-size="10.00" fill="#000000">split</text>
</g>
<!-- 4&#45;&gt;1 -->
<g id="edge4" class="edge">
<title>4&#45;&gt;1</title>
<path fill="none" stroke="#c0c0c0" stroke-width="2" d="M112.4677,-287.8314C107.052,-279.7079 100.556,-269.9637 94.588,-261.0118"/>
<polygon fill="#c0c0c0" stroke="#c0c0c0" stroke-width="2" points="97.3149,-258.7923 88.8556,-252.4133 91.4905,-262.6753 97.3149,-258.7923"/>
</g>
<!-- 4&#45;&gt;2 -->
<g id="edge5" class="edge">
<title>4&#45;&gt;2</title>
<path fill="none" stroke="#c0c0c0" stroke-width="2" d="M137.4985,-287.7623C155.2793,-262.66 187.4081,-217.3017 207.8326,-188.4671"/>
<polygon fill="#c0c0c0" stroke="#c0c0c0" stroke-width="2" points="210.8425,-190.273 213.7667,-180.0896 205.1303,-186.2268 210.8425,-190.273"/>
</g>
<!-- 5&#45;&gt;3 -->
<g id="edge6" class="edge">
<title>5&#45;&gt;3</title>
<path fill="none" stroke="#c0c0c0" stroke-width="2" d="M84.9074,-143.8314C88.5531,-135.8771 92.911,-126.369 96.9428,-117.5723"/>
<polygon fill="#c0c0c0" stroke="#c0c0c0" stroke-width="2" points="100.1558,-118.9622 101.1407,-108.4133 93.7924,-116.0456 100.1558,-118.9622"/>
</g>
<!-- 6 -->
<g id="node7" class="node">
<title>6</title>
<path fill="none" stroke="#56a9d8" stroke-width="2" d="M149.0801,-396C149.0801,-396 100.0801,-396 100.0801,-396 94.0801,-396 88.0801,-390 88.0801,-384 88.0801,-384 88.0801,-372 88.0801,-372 88.0801,-366 94.0801,-360 100.0801,-360 100.0801,-360 149.0801,-360 149.0801,-360 155.0801,-360 161.0801,-366 161.0801,-372 161.0801,-372 161.0801,-384 161.0801,-384 161.0801,-390 155.0801,-396 149.0801,-396"/>
<text text-anchor="middle" x="124.5801" y="-375.5" font-family="sans" font-size="10.00" fill="#000000">convert_psl</text>
</g>
<!-- 6&#45;&gt;4 -->
<g id="edge7" class="edge">
<title>6&#45;&gt;4</title>
<path fill="none" stroke="#c0c0c0" stroke-width="2" d="M124.5801,-359.8314C124.5801,-352.131 124.5801,-342.9743 124.5801,-334.4166"/>
<polygon fill="#c0c0c0" stroke="#c0c0c0" stroke-width="2" points="128.0802,-334.4132 124.5801,-324.4133 121.0802,-334.4133 128.0802,-334.4132"/>
</g>
<!-- 7 -->
<g id="node8" class="node">
<title>7</title>
<path fill="none" stroke="#d8ac56" stroke-width="2" d="M161.5801,-468C161.5801,-468 87.5801,-468 87.5801,-468 81.5801,-468 75.5801,-462 75.5801,-456 75.5801,-456 75.5801,-444 75.5801,-444 75.5801,-438 81.5801,-432 87.5801,-432 87.5801,-432 161.5801,-432 161.5801,-432 167.5801,-432 173.5801,-438 173.5801,-444 173.5801,-444 173.5801,-456 173.5801,-456 173.5801,-462 167.5801,-468 161.5801,-468"/>
<text text-anchor="middle" x="124.5801" y="-447.5" font-family="sans" font-size="10.00" fill="#000000">map_to_genome</text>
</g>
<!-- 7&#45;&gt;6 -->
<g id="edge9" class="edge">
<title>7&#45;&gt;6</title>
<path fill="none" stroke="#c0c0c0" stroke-width="2" d="M124.5801,-431.8314C124.5801,-424.131 124.5801,-414.9743 124.5801,-406.4166"/>
<polygon fill="#c0c0c0" stroke="#c0c0c0" stroke-width="2" points="128.0802,-406.4132 124.5801,-396.4133 121.0802,-406.4133 128.0802,-406.4132"/>
</g>
<!-- 8 -->
<g id="node9" class="node">
<title>8</title>
<path fill="none" stroke="#70d856" stroke-width="2" d="M157.0801,-540C157.0801,-540 92.0801,-540 92.0801,-540 86.0801,-540 80.0801,-534 80.0801,-528 80.0801,-528 80.0801,-516 80.0801,-516 80.0801,-510 86.0801,-504 92.0801,-504 92.0801,-504 157.0801,-504 157.0801,-504 163.0801,-504 169.0801,-510 169.0801,-516 169.0801,-516 169.0801,-528 169.0801,-528 169.0801,-534 163.0801,-540 157.0801,-540"/>
<text text-anchor="middle" x="124.5801" y="-519.5" font-family="sans" font-size="10.00" fill="#000000">index_genome</text>
</g>
<!-- 8&#45;&gt;7 -->
<g id="edge10" class="edge">
<title>8&#45;&gt;7</title>
<path fill="none" stroke="#c0c0c0" stroke-width="2" d="M124.5801,-503.8314C124.5801,-496.131 124.5801,-486.9743 124.5801,-478.4166"/>
<polygon fill="#c0c0c0" stroke="#c0c0c0" stroke-width="2" points="128.0802,-478.4132 124.5801,-468.4133 121.0802,-478.4133 128.0802,-478.4132"/>
</g>
<!-- 9 -->
<g id="node10" class="node">
<title>9</title>
<path fill="none" stroke="#d85656" stroke-width="2" d="M167.0801,-612C167.0801,-612 82.0801,-612 82.0801,-612 76.0801,-612 70.0801,-606 70.0801,-600 70.0801,-600 70.0801,-588 70.0801,-588 70.0801,-582 76.0801,-576 82.0801,-576 82.0801,-576 167.0801,-576 167.0801,-576 173.0801,-576 179.0801,-582 179.0801,-588 179.0801,-588 179.0801,-600 179.0801,-600 179.0801,-606 173.0801,-612 167.0801,-612"/>
<text text-anchor="middle" x="124.5801" y="-591.5" font-family="sans" font-size="10.00" fill="#000000">download_genome</text>
</g>
<!-- 9&#45;&gt;8 -->
<g id="edge11" class="edge">
<title>9&#45;&gt;8</title>
<path fill="none" stroke="#c0c0c0" stroke-width="2" d="M124.5801,-575.8314C124.5801,-568.131 124.5801,-558.9743 124.5801,-550.4166"/>
<polygon fill="#c0c0c0" stroke="#c0c0c0" stroke-width="2" points="128.0802,-550.4132 124.5801,-540.4133 121.0802,-550.4133 128.0802,-550.4132"/>
</g>
</g>
</svg>
